<?xml version="1.0" encoding="UTF-8" standalone="no"?>
<svg width="295px" height="219px" viewBox="0 0 295 219" version="1.1" xmlns="http://www.w3.org/2000/svg" xmlns:xlink="http://www.w3.org/1999/xlink">
    <!-- Generator: sketchtool 41.2 (35397) - http://www.bohemiancoding.com/sketch -->
    <title>112</title>
    <desc>Created with sketchtool.</desc>
    <defs></defs>
    <g id="Page-1" stroke="none" stroke-width="1" fill="none" fill-rule="evenodd">
        <g id="5" transform="translate(-573.000000, -275.000000)" fill="#E2231A">
            <g id="Group-2" transform="translate(403.000000, 275.000000)">
                <path d="M231.495017,145.874166 C234.62714,133.149916 238.150778,120.425666 241.478659,107.3099 L249.504725,74.2268498 C251.658059,66.0050266 255.573213,50.1486533 256.747759,35.8583415 C257.726548,26.6577299 257.139275,18.0443913 254.594425,11.5843873 C251.658059,5.3201411 245.785328,0.817714114 236.193201,0.0346833339 C233.256836,-0.161074361 230.711986,0.426198724 229.733197,2.97104876 L205.850759,37.2286454 C199.390755,45.4504686 192.930751,52.889261 184.51317,61.6983573 C180.206501,65.8092689 175.899831,69.3329074 173.550739,70.8989689 C172.180435,72.0735151 170.222858,73.6395767 170.614374,73.0523036 L170.614374,72.8565459 C169.831343,73.6395767 169.831343,74.2268498 170.418616,75.2056382 C170.418616,75.7929113 170.418616,76.3801844 170.810131,76.5759421 L170.810131,76.3801844 C172.963466,79.3165498 175.899831,80.6868537 179.227712,80.6868537 C186.666505,80.6868537 197.041662,73.0523036 204.480455,65.4177535 C209.96167,59.5450226 218.183493,49.3656225 226.405317,38.794707 C224.056224,51.3231994 220.924101,64.2432073 216.617432,82.2529153 C208.787124,114.16142 200.565301,148.810532 198.803482,167.799028 C197.041662,187.17904 202.718636,212.236025 222.098647,214.976633 C223.664709,214.976633 226.209559,214.389359 226.209559,212.62754 C226.405317,211.844509 226.013801,210.669963 225.818044,209.103902 C225.035013,204.99299 223.860467,198.141471 224.643497,187.962071 C226.405317,170.931151 228.362894,159.577205 231.495017,145.874166 Z M323.696891,145.874166 C326.829014,133.149916 330.352653,120.425666 333.680534,107.3099 L341.706599,74.2268498 C343.859934,66.0050266 347.775088,50.1486533 348.949634,35.8583415 C349.928422,26.6577299 349.341149,18.0443913 346.796299,11.5843873 C343.859934,5.3201411 337.987203,0.817714114 328.395076,0.0346833339 C325.45871,-0.161074361 322.91386,0.426198724 321.935072,2.97104876 L298.052633,37.2286454 C291.592629,45.4504686 285.132625,52.889261 276.715044,61.6983573 C272.408375,65.8092689 268.101706,69.3329074 265.752613,70.8989689 C264.38231,72.0735151 262.424733,73.6395767 262.816248,73.0523036 L262.816248,72.8565459 C262.033217,73.6395767 262.033217,74.2268498 262.62049,75.2056382 C262.62049,75.7929113 262.62049,76.3801844 263.012006,76.5759421 L263.012006,76.3801844 C265.16534,79.3165498 268.101706,80.6868537 271.429587,80.6868537 C278.868379,80.6868537 289.243537,73.0523036 296.682329,65.4177535 C302.163545,59.5450226 310.385368,49.3656225 318.607191,38.794707 C316.258099,51.3231994 313.125976,64.2432073 308.819306,82.2529153 C300.988999,114.16142 292.767175,148.810532 291.005356,167.799028 C289.243537,187.17904 294.92051,212.236025 314.300522,214.976633 C315.866583,214.976633 318.411433,214.389359 318.411433,212.62754 C318.607191,211.844509 318.215676,210.669963 318.019918,209.103902 C317.236887,204.99299 316.062341,198.141471 316.845372,187.962071 C318.607191,170.931151 320.564768,159.577205 323.696891,145.874166 Z M364.024797,91.4609991 C364.418935,60.9704619 413.011873,26.8583142 437.040597,29.2025799 C446.828482,31.5516722 448.198785,39.7734954 447.415755,47.9953186 C444.479389,82.8401883 398.280573,132.562643 366.763584,166.82024 C357.562973,176.99964 349.928422,185.612978 343.859934,193.443286 L343.859934,193.247528 L343.272661,193.834801 L339.357507,200.099048 C337.791445,204.209959 337.008415,206.754809 337.595688,210.278448 L337.595688,210.08269 C338.378718,216.346936 342.881145,215.955421 347.970846,215.368148 C349.536907,215.17239 351.885999,214.976633 353.843576,214.976633 C362.261157,214.976633 373.02783,215.955421 383.598746,216.738452 C395.539965,217.71724 408.264216,218.500271 418.835131,218.500271 C425.68665,218.500271 432.146654,218.304513 437.236354,217.325725 C448.590301,214.780875 464.055159,204.797232 464.642432,186.200251 C464.838189,183.851159 464.250916,182.676613 462.880613,182.872371 L463.07637,182.676613 C462.880613,182.676613 462.097582,183.068128 460.923036,183.851159 C458.378186,185.221463 454.267274,187.766313 448.003028,188.745101 C437.62787,191.094194 431.559381,191.094194 423.337558,190.898436 L388.884204,187.766313 L394.952692,181.110551 C416.681796,155.857809 449.373332,116.902027 460.923036,77.3589729 C462.880613,70.3116959 464.055159,63.4601765 464.642432,57.1959303 C467.774555,22.5468183 449.960605,2.18801798 425.68665,2.18801798 C410.809066,2.18801798 393.386631,9.82256809 376.747227,26.4619722 C365.784796,37.6201608 352.66903,58.7619919 351.102969,76.1844267 C350.319938,84.0147345 351.885999,91.0620115 357.171457,96.1517116 C360.302608,98.6957716 365.977029,99.4791061 364.024797,91.4609991 L364.024797,91.4609991 Z" id="112"></path>
            </g>
        </g>
    </g>
</svg>