<?xml version="1.0" encoding="UTF-8" standalone="no"?>
<svg width="295px" height="193px" viewBox="0 0 295 193" version="1.1" xmlns="http://www.w3.org/2000/svg" xmlns:xlink="http://www.w3.org/1999/xlink">
    <!-- Generator: sketchtool 41.2 (35397) - http://www.bohemiancoding.com/sketch -->
    <title>183</title>
    <desc>Created with sketchtool.</desc>
    <defs></defs>
    <g id="Page-1" stroke="none" stroke-width="1" fill="none" fill-rule="evenodd">
        <g id="2" transform="translate(-573.000000, -326.000000)" fill="#E2231A">
            <g id="Group-2" transform="translate(402.000000, 326.000000)">
                <path d="M223.955154,128.408779 C226.652317,117.451556 229.686625,106.494333 232.55236,95.1999639 L239.46384,66.7111832 C241.318139,59.6311312 244.689592,45.9767453 245.701028,33.6709406 C246.543892,25.7480253 246.038174,18.330828 243.846729,12.76793 C241.318139,7.37360463 236.260959,3.4964333 228.000898,2.82214264 C225.472308,2.65356997 223.280864,3.15928797 222.438,5.35073263 L201.872135,34.8509493 C196.309237,41.9310013 190.746339,48.3367626 183.497714,55.9225326 C179.789116,59.4625586 176.080517,62.4968666 174.057645,63.8454479 C172.877636,64.8568839 171.19191,66.2054652 171.529055,65.6997472 L171.529055,65.5311746 C170.854764,66.2054652 170.854764,66.7111832 171.360482,67.5540466 C171.360482,68.0597646 171.360482,68.5654826 171.697628,68.7340552 L171.697628,68.5654826 C173.551927,71.0940726 176.080517,72.2740812 178.946252,72.2740812 C185.352014,72.2740812 194.286365,65.6997472 200.692126,59.1254132 C205.412161,54.0682332 212.492213,45.3024546 219.572265,36.1995306 C217.549393,46.9881813 214.85223,58.1139772 211.143632,73.6226626 C204.400725,101.100007 197.320673,130.937369 195.803519,147.288918 C194.286365,163.977612 199.174972,185.554913 215.863666,187.91493 C217.212248,187.91493 219.403692,187.409212 219.403692,185.892058 C219.572265,185.217768 219.23512,184.206332 219.066547,182.85775 C218.392256,179.317724 217.38082,173.417681 218.055111,164.651902 C219.572265,149.98608 221.257992,140.208866 223.955154,128.408779 Z M316.838694,0.124979972 C268.121193,-3.58361869 224.629445,76.3198252 278.572698,96.5485452 C254.466807,106.157187 240.475276,129.925933 239.46384,150.154653 C238.115258,174.59769 255.815388,193.814974 285.65275,192.803538 C323.918746,191.454956 348.8675,158.920432 350.553227,129.251642 C351.39609,111.214367 343.473175,95.3685365 323.5816,90.6485019 C344.653184,80.3655692 357.127561,58.7882679 358.30757,39.4024113 C359.487578,17.319392 344.484611,-0.71788336 316.838694,0.124979972 Z M299.644282,104.134315 C301.498581,103.79717 303.35288,103.628597 304.870034,103.628597 C323.5816,102.954307 331.841661,118.294419 331.16737,134.81454 C330.155934,153.020388 316.164403,175.609126 293.744238,177.463425 C279.584134,177.294852 271.829792,164.146184 272.504082,148.974644 C273.684091,129.420215 283.798451,106.662905 299.307136,104.302888 C299.475709,104.302888 299.644282,104.134315 299.644282,104.134315 Z M313.804386,13.4422206 C329.144498,12.76793 338.415995,24.0622986 337.741704,40.5824199 C336.730268,59.1254132 322.738737,85.4227492 302.004299,87.4456212 C275.032672,83.9055952 282.112724,14.6222293 313.804386,13.4422206 Z M357.633279,149.648935 L357.464706,149.648935 C357.633279,145.097473 351.227518,146.446054 349.878936,148.806072 C349.036073,150.828944 348.698928,152.683243 348.530355,154.200397 C346.844628,173.080536 374.659118,187.577785 391.516385,187.577785 C439.728168,187.577785 469.396957,158.077568 465.688358,112.225803 C464.002632,93.1770919 445.459638,75.1398166 427.085218,74.6340986 C440.571031,56.5968232 460.12546,39.4024113 460.12546,17.6565373 C460.12546,10.745058 456.92258,5.0135873 448.156801,3.32786064 C430.793816,-0.0435926942 382.413461,7.20503196 370.95052,4.5078693 C367.241921,4.17072397 364.881904,1.81070664 363.533322,1.4735613 C362.521886,1.30498864 361.51045,3.32786064 361.173305,6.0250233 C360.161869,14.4536566 361.51045,19.5108366 363.701895,23.5565806 C369.939084,31.4794959 387.470641,30.4680599 394.719266,29.6251966 C407.02507,29.1194786 418.825157,27.6023246 430.288098,26.4223159 C430.962389,26.2537433 430.962389,27.2651793 402.305036,61.3168579 C398.090719,66.2054652 393.539257,71.7683632 388.144932,78.1741246 C385.110624,81.7141505 381.907743,83.5684499 386.627778,86.9399032 C388.987795,88.6256299 392.359248,88.7942025 396.067847,87.9513392 C422.533756,81.8827232 438.379586,96.5485452 436.69386,126.55448 C435.008133,153.694679 412.419396,175.103408 387.807786,172.0691 C372.973392,170.2148 360.499014,162.460458 357.633279,149.648935 Z" id="183"></path>
            </g>
        </g>
    </g>
</svg>