<?xml version="1.0" encoding="UTF-8" standalone="no"?>
<svg width="343px" height="195px" viewBox="0 0 343 195" version="1.1" xmlns="http://www.w3.org/2000/svg" xmlns:xlink="http://www.w3.org/1999/xlink">
    <!-- Generator: sketchtool 41.2 (35397) - http://www.bohemiancoding.com/sketch -->
    <title>&gt;30</title>
    <desc>Created with sketchtool.</desc>
    <defs></defs>
    <g id="Page-1" stroke="none" stroke-width="1" fill="none" fill-rule="evenodd">
        <g id="4" transform="translate(-549.000000, -306.000000)" fill="#E2231A">
            <g id="Group-2" transform="translate(402.000000, 306.000000)">
                <path d="M151.348196,167.370585 C148.53246,170.362305 145.892707,177.04968 147.476558,178.633531 C148.356476,179.161482 161.907208,170.890256 164.370978,169.834355 C171.762286,166.842635 209.246779,149.772232 222.797511,140.445105 C227.021116,139.037236 230.71677,133.053796 231.068737,129.886093 C231.420704,129.710109 231.420704,129.358142 231.24472,129.182158 C231.24472,127.950274 231.420704,126.894373 230.71677,126.366422 C226.493165,111.935772 197.279898,73.0434113 191.648425,65.4761193 C189.712606,63.1883334 182.673265,48.4057166 180.737446,48.4057166 C175.985891,48.4057166 170.882368,55.4450579 170.178434,59.3166957 C167.362698,74.8032466 205.199157,116.159377 214.878252,132.701829 C194.640145,142.380923 159.795406,157.515507 151.348196,167.370585 Z M244.091518,154.699771 L243.915535,154.699771 C244.091518,149.948215 237.404144,151.356084 235.996276,153.819853 C235.116358,155.931656 234.764391,157.867474 234.588408,159.451326 C232.828572,179.161482 261.865855,194.296066 279.464209,194.296066 C329.795499,194.296066 360.768601,163.498947 356.896963,115.631426 C355.137128,95.7452871 335.778939,76.915049 316.596734,76.3870984 C330.675417,57.5568603 351.089507,39.6065399 351.089507,16.9046641 C351.089507,9.6893392 347.74582,3.70589906 338.594676,1.94606373 C320.468372,-1.57360694 269.961098,5.993685 257.994218,3.17794846 C254.12258,2.8259814 251.65881,0.362211927 250.250942,0.0102448597 C249.195041,-0.165738674 248.13914,1.94606373 247.787173,4.76180026 C246.731271,13.5609769 248.13914,18.8404829 250.426926,23.0640878 C256.938316,31.3353138 275.240604,30.2794126 282.807896,29.399495 C295.654694,28.8715444 307.973541,27.2876926 319.940421,26.0558078 C320.644356,25.8798243 320.644356,26.9357255 290.727155,62.4843993 C286.327566,67.5879217 281.576011,73.3953783 275.944538,80.0827526 C272.776834,83.7784068 269.433147,85.7142257 274.360686,89.2338964 C276.824456,90.9937317 280.344126,91.1697152 284.215764,90.2897976 C311.845179,83.9543903 328.387631,99.2649578 326.627796,130.590027 C324.86796,158.923376 301.286167,181.273284 275.592571,178.105581 C260.10602,176.169762 247.083239,168.074519 244.091518,154.699771 Z M439.257257,0.362211927 C392.973588,0.362211927 364.464255,64.7721852 361.120568,102.784628 C357.952865,137.981335 362.880404,195 408.988089,195 C460.023314,195 484.661009,129.358142 488.18068,87.8260281 C491.70035,48.9336672 492.052317,0.362211927 439.257257,0.362211927 Z M440.665125,11.0972075 C458.087495,11.0972075 464.598886,37.670721 461.431182,75.1552137 C457.207578,123.022735 437.673405,184.440988 413.387678,184.440988 C390.685802,184.440988 394.381456,137.805352 395.789324,121.438883 C397.54916,101.200777 414.619563,11.0972075 440.665125,11.0972075 Z" id="&gt;30"></path>
            </g>
        </g>
    </g>
</svg>