<?xml version="1.0" encoding="UTF-8" standalone="no"?>
<svg width="295px" height="184px" viewBox="0 0 295 184" version="1.1" xmlns="http://www.w3.org/2000/svg" xmlns:xlink="http://www.w3.org/1999/xlink">
    <!-- Generator: sketchtool 41.2 (35397) - http://www.bohemiancoding.com/sketch -->
    <title>381</title>
    <desc>Created with sketchtool.</desc>
    <defs></defs>
    <g id="Page-1" stroke="none" stroke-width="1" fill="none" fill-rule="evenodd">
        <g id="3" transform="translate(-546.000000, -350.000000)" fill="#E2231A">
            <g id="Group-2" transform="translate(402.000000, 350.000000)">
                <path d="M152.738071,142.504658 L152.577546,142.504658 C152.738071,138.170484 146.638122,139.454683 145.353922,141.702033 C144.551297,143.628333 144.230247,145.394107 144.069722,146.838832 C142.464473,164.817628 168.951092,178.622775 185.003589,178.622775 C230.913729,178.622775 259.166123,150.530906 255.634573,106.868115 C254.029324,88.7287943 236.371578,71.552623 218.874356,71.0710481 C231.716354,53.8948768 250.33725,37.5213304 250.33725,16.8136098 C250.33725,10.2320862 247.287275,4.7742374 238.939977,3.16898774 C222.405906,-0.0415115681 176.335241,6.86106195 165.419543,4.2926625 C161.887994,3.97161257 159.640644,1.72426305 158.356444,1.40321312 C157.393295,1.24268816 156.430145,3.16898774 156.109095,5.73738719 C155.145945,13.7636355 156.430145,18.5793844 158.516969,22.4319836 C164.456393,29.976657 181.150989,29.0135072 188.053563,28.2108824 C199.771885,27.7293075 211.008633,26.2845828 221.924331,25.160908 C222.566431,25.000383 222.566431,25.9635328 195.277186,58.3895759 C191.264062,63.0447999 186.929888,68.3421237 181.793089,74.4420724 C178.90364,77.8130967 175.853666,79.5788713 180.348365,82.7893706 C182.595714,84.3946203 185.806213,84.5551452 189.337763,83.7525204 C214.540182,77.9736217 229.629529,91.9392937 228.024279,120.512738 C226.41903,146.357257 204.908684,166.743928 181.472039,163.854478 C167.345842,162.088704 155.466995,154.704555 152.738071,142.504658 Z M327.228708,0.119013397 C280.836993,-3.41253584 239.421552,72.6762978 290.789541,91.9392937 C267.834471,101.089217 254.510899,123.723237 253.547749,142.986233 C252.263549,166.262353 269.118671,184.562199 297.53159,183.599049 C333.970757,182.314849 357.728452,151.333531 359.333701,123.081137 C360.136326,105.904966 352.591653,90.8156189 333.649707,86.3209199 C353.715327,76.528897 365.594175,55.9817014 366.71785,37.5213304 C367.841524,16.4925599 353.554803,-0.68361143 327.228708,0.119013397 Z M310.855162,99.1629171 C312.620936,98.8418672 314.386711,98.6813422 315.831436,98.6813422 C333.649707,98.0392423 341.51543,112.647014 340.87333,128.378461 C339.91018,145.715157 326.586608,167.225502 305.236788,168.991277 C291.752691,168.830752 284.368542,156.309805 285.010642,141.862558 C286.134317,123.241662 295.765815,101.570792 310.534112,99.3234421 C310.694637,99.3234421 310.855162,99.1629171 310.855162,99.1629171 Z M324.339259,12.8004857 C338.947031,12.1583858 347.775904,22.9135585 347.133804,38.6450051 C346.170654,56.3027513 332.847082,81.3446459 313.102511,83.2709455 C287.418517,79.8999212 294.160565,13.9241604 324.339259,12.8004857 Z M417.925314,122.278512 C420.493713,111.844389 423.383163,101.410267 426.112087,90.6550939 L432.693611,63.5263748 C434.459385,56.7843262 437.669885,43.781804 438.633034,32.0634815 C439.435659,24.5188082 438.954084,17.4557097 436.86726,12.1583858 C434.459385,7.02158691 429.643636,3.32951271 421.777913,2.68741285 C419.370038,2.52688788 417.283214,3.00846278 416.480589,5.09528733 L396.896543,33.1871563 C391.599219,39.9292048 386.301896,46.0291535 379.399322,53.252777 C375.867773,56.6238012 372.336224,59.5132506 370.409924,60.7974504 C369.286249,61.7606001 367.681,63.0447999 368.00205,62.563225 L368.00205,62.4027 C367.35995,63.0447999 367.35995,63.5263748 367.841525,64.3289996 C367.841525,64.8105745 367.841525,65.2921494 368.162574,65.4526744 L368.162574,65.2921494 C369.928349,67.7000239 372.336224,68.8236986 375.065148,68.8236986 C381.165097,68.8236986 389.67292,62.563225 395.772869,56.3027513 C400.267568,51.4870024 407.009616,43.1397041 413.751665,34.471356 C411.825365,44.7449538 409.256966,55.3396015 405.725416,70.1078984 C399.304418,96.2734677 392.562369,124.686387 391.117645,140.257308 C389.67292,156.14928 394.328144,176.696475 410.220115,178.943825 C411.504315,178.943825 413.59114,178.46225 413.59114,177.017525 C413.751665,176.375426 413.430615,175.412276 413.27009,174.128076 C412.62799,170.757052 411.66484,165.138678 412.30694,156.79138 C413.751665,142.825708 415.356914,133.51526 417.925314,122.278512 Z" id="381"></path>
            </g>
        </g>
    </g>
</svg>