<?xml version="1.0" encoding="UTF-8" standalone="no"?>
<svg width="357px" height="196px" viewBox="0 0 357 196" version="1.1" xmlns="http://www.w3.org/2000/svg" xmlns:xlink="http://www.w3.org/1999/xlink">
    <!-- Generator: Sketch 41.2 (35397) - http://www.bohemiancoding.com/sketch -->
    <title>620</title>
    <desc>Created with Sketch.</desc>
    <defs></defs>
    <g id="Page-1" stroke="none" stroke-width="1" fill="none" fill-rule="evenodd">
        <g id="3" transform="translate(-532.000000, -291.000000)" fill="#E2231A">
            <path d="M643.16611,309.092519 C645.775608,312.745816 650.124771,307.700787 649.776838,305.265255 C648.907006,296.218996 640.556612,292.913632 632.554152,292.043799 C630.118621,291.695866 627.335156,291.5219 624.725658,291.5219 C569.230336,291.5219 536.698595,362.326277 532.523398,410.167072 C532.175465,413.646402 532.175465,416.603833 532.001499,419.735231 C531.827532,452.614905 546.788654,483.92888 582.451792,483.92888 C583.843524,483.92888 585.931122,483.92888 587.670788,483.754913 C622.11616,480.275583 643.514043,455.398369 648.211139,423.910427 C652.386336,397.119582 642.470244,370.67667 610.982302,370.67667 C600.196378,370.67667 584.53939,373.460134 572.5357,384.593992 C579.842294,358.499013 599.152579,301.959891 632.728118,304.04749 C636.207449,304.221456 639.860746,305.787155 643.16611,309.266485 L643.16611,309.092519 Z M599.152579,383.028293 C630.466554,380.766729 628.726888,445.30831 605.06744,464.096695 C600.718277,467.40206 595.847214,469.315691 590.454252,469.141725 C571.491901,469.315691 564.881172,446.004177 565.055139,431.043055 C565.055139,414.342268 580.190227,384.767959 599.152579,383.028293 Z M671.047755,373.292808 C671.398019,346.196387 714.581735,315.881503 735.935652,317.964812 C744.633979,320.05241 745.851744,327.359004 745.155878,334.665599 C742.54638,365.631641 701.49028,409.819139 673.481669,440.263281 C665.305242,449.309541 658.520547,456.964068 653.127585,463.922729 L653.127585,463.748762 L652.605685,464.270662 L649.126355,469.837591 C647.734622,473.490888 647.038756,475.752453 647.560656,478.88385 L647.560656,478.709884 C648.256522,484.276813 652.257752,483.92888 656.780882,483.40698 C658.172614,483.233014 660.260212,483.059047 661.999878,483.059047 C669.480438,483.059047 679.048597,483.92888 688.44279,484.624746 C699.054748,485.494578 710.362573,486.190445 719.756765,486.190445 C725.845594,486.190445 731.586489,486.016478 736.109619,485.146645 C746.199677,482.885081 759.943033,474.012788 760.464933,457.485967 C760.638899,455.398369 760.117,454.35457 758.899234,454.528536 L759.0732,454.35457 C758.899234,454.35457 758.203368,454.702503 757.159569,455.398369 C754.898004,456.616135 751.244707,458.8777 745.677778,459.747532 C736.457552,461.835131 731.064589,461.835131 723.757995,461.661164 L693.139886,458.8777 L698.532849,452.962838 C717.843133,430.521156 746.895543,395.901816 757.159569,360.760578 C758.899234,354.497783 759.943033,348.408954 760.464933,342.842025 C763.248397,312.04995 747.417443,293.957431 725.845594,293.957431 C712.624137,293.957431 697.141116,300.742126 682.353961,315.52928 C672.611836,325.445373 660.956079,344.233758 659.564346,359.716779 C658.86848,366.67544 660.260212,372.938235 664.957309,377.461364 C667.739909,379.722227 672.78267,380.418363 671.047755,373.292808 L671.047755,373.292808 Z M839.317152,291 C793.563955,291 765.381378,354.671749 762.076014,392.248519 C758.944616,427.041825 763.815679,483.40698 809.39491,483.40698 C859.845203,483.40698 884.200517,418.517465 887.679847,377.461364 C891.159178,339.014762 891.507111,291 839.317152,291 Z M840.708885,301.611958 C857.931571,301.611958 864.368332,327.880904 861.236935,364.935774 C857.061738,412.25467 837.751454,472.968988 813.744073,472.968988 C791.302391,472.968988 794.955688,426.867858 796.34742,410.688971 C798.087085,390.682821 814.961838,301.611958 840.708885,301.611958 Z" id="620"></path>
        </g>
    </g>
</svg>