<?xml version="1.0" encoding="UTF-8" standalone="no"?>
<svg width="338px" height="190px" viewBox="0 0 338 190" version="1.1" xmlns="http://www.w3.org/2000/svg" xmlns:xlink="http://www.w3.org/1999/xlink">
    <!-- Generator: Sketch 41.2 (35397) - http://www.bohemiancoding.com/sketch -->
    <title>&gt;90</title>
    <desc>Created with Sketch.</desc>
    <defs></defs>
    <g id="Page-1" stroke="none" stroke-width="1" fill="none" fill-rule="evenodd">
        <g id="4" transform="translate(-551.000000, -306.000000)" fill="#E2231A">
            <path d="M555.226422,468.331199 C552.489542,471.239134 549.923717,477.739225 551.463212,479.27872 C552.318487,479.791885 565.489722,471.752299 567.884493,470.725969 C575.068803,467.818034 611.503519,451.225699 624.674754,442.159784 C628.780074,440.791344 632.372229,434.975473 632.714339,431.896483 C633.056449,431.725428 633.056449,431.383318 632.885394,431.212263 C632.885394,430.014878 633.056449,428.988548 632.372229,428.475383 C628.266909,414.448873 599.871778,376.645717 594.398018,369.290352 C592.516413,367.066637 585.674213,352.698016 583.792608,352.698016 C579.174123,352.698016 574.213528,359.540216 573.529308,363.303427 C570.792428,378.356267 607.569254,418.554193 616.977279,434.633363 C597.305953,444.041389 563.437062,458.752119 555.226422,468.331199 Z M652.601343,478.423445 C650.035518,474.831289 645.759143,479.791885 646.101253,482.186655 C646.956528,491.081515 655.167168,494.33156 663.035698,495.186835 C665.430468,495.528945 668.167348,495.7 670.733173,495.7 C725.29972,495.7 757.287006,426.080613 761.392326,379.040487 C761.734436,375.619387 761.734436,372.711452 761.905491,369.632462 C762.076546,337.303066 747.365815,306.513165 712.299539,306.513165 C710.931099,306.513165 708.878439,306.513165 707.167889,306.68422 C673.298998,310.10532 652.259233,334.566186 647.640748,365.527142 C643.535428,391.869612 653.285563,417.869973 684.246519,417.869973 C694.851929,417.869973 710.246879,415.133093 722.049675,404.185573 C714.865364,429.843823 695.878259,485.4367 662.864643,483.38404 C659.443543,483.212985 655.851388,481.67349 652.601343,478.25239 L652.601343,478.423445 Z M695.878259,405.725068 C665.088358,407.948783 666.798908,344.487376 690.062389,326.013436 C694.338764,322.76339 699.128304,320.881785 704.431009,321.05284 C723.076005,320.881785 729.576095,343.803156 729.40504,358.513886 C729.40504,374.935167 714.523254,404.014518 695.878259,405.725068 Z M840.122251,306 C795.134785,306 767.423874,368.606132 764.173829,405.554013 C761.094839,439.765014 765.884379,495.186835 810.70079,495.186835 C860.306741,495.186835 884.254442,431.383318 887.675542,391.014337 C891.096642,353.211181 891.438752,306 840.122251,306 Z M841.490691,316.434355 C858.425136,316.434355 864.754171,342.263661 861.675181,378.698377 C857.569861,425.225338 838.582756,484.923535 814.977165,484.923535 C792.911069,484.923535 796.503225,439.593959 797.871665,423.685843 C799.582215,404.014518 816.17455,316.434355 841.490691,316.434355 Z" id="&gt;90"></path>
        </g>
    </g>
</svg>