<?xml version="1.0" encoding="UTF-8" standalone="no"?>
<svg width="349px" height="88px" viewBox="0 0 349 88" version="1.1" xmlns="http://www.w3.org/2000/svg" xmlns:xlink="http://www.w3.org/1999/xlink">
    <!-- Generator: Sketch 41.2 (35397) - http://www.bohemiancoding.com/sketch -->
    <title>logo</title>
    <desc>Created with Sketch.</desc>
    <defs></defs>
    <g id="Page-1" stroke="none" stroke-width="1" fill="none" fill-rule="evenodd">
        <g id="6" transform="translate(-546.000000, -98.000000)" fill="#4A4A4A">
            <g id="logo" transform="translate(546.000000, 98.000000)">
                <path d="M43.74,54.548 C38.34,59.228 29.484,66.896 26.784,74.816 C26.244,76.364 25.992,77.912 25.992,79.46 C25.992,81.152 26.28,82.844 27.144,84.5 C28.224,86.588 30.024,87.92 32.904,87.92 C33.3,87.92 33.732,87.884 34.128,87.848 C40.536,87.056 45.108,74.168 47.952,64.484 C51.264,53.108 56.628,33.236 57.204,21.68 C57.168,19.592 55.908,17.324 51.804,17.468 C51.012,17.504 50.328,17.72 50.328,18.332 C50.328,18.656 50.4,18.656 50.472,18.872 C50.616,19.304 50.832,19.844 50.832,20.456 C50.832,21.896 50.508,24.056 50.076,26.54 L50.112,26.504 C46.908,32.084 40.32,41.732 36.18,46.124 C34.74,47.708 33.48,48.572 32.868,48.392 C32.544,48.212 32.4,47.672 32.4,46.952 C32.4,45.908 32.688,44.468 32.868,43.532 L32.976,43.028 C33.372,40.832 33.912,38.492 34.488,36.152 C35.244,33.128 36.036,29.852 36.396,27.08 C36.72,24.884 36.936,22.508 36.936,20.276 C36.936,14.552 35.244,9.044 30.456,5.156 C27.648,2.924 23.148,1.52 18.684,1.556 C9.72,1.52 2.592,6.92 0.54,13.832 C0.18,14.948 2.84217094e-14,16.136 2.84217094e-14,17.252 C2.84217094e-14,21.86 2.772,26.036 8.028,27.728 C9.108,28.016 10.152,28.124 11.16,28.124 C17.028,28.124 21.492,23.66 23.148,19.088 C23.148,18.944 23.184,18.836 23.256,18.728 C23.364,18.404 23.472,17.936 23.472,17.324 C23.472,16.784 23.328,16.352 22.608,16.352 C21.6,16.352 21.42,16.964 21.348,17.576 C21.348,17.72 21.276,17.864 21.276,18.008 C20.268,21.032 16.92,25.64 13.14,25.244 C9.432,25.172 5.796,19.664 6.3,14.264 L6.3,14.3 C7.02,8.324 12.708,3.068 18.108,3.536 L18.072,3.536 C27.072,4.94 29.016,12.968 29.016,20.24 C29.016,22.832 28.764,25.388 28.512,27.584 C27.792,32.588 26.352,38.276 25.128,43.064 L24.516,45.332 C24.264,46.52 24.012,48.104 24.012,49.544 C24.012,51.38 24.444,53.072 25.992,53.72 C26.928,54.116 27.828,54.296 28.692,54.296 C31.14,54.296 33.984,52.208 37.656,48.14 C40.428,44.864 44.28,39.572 48.924,32.552 C47.34,39.824 45.792,46.988 43.74,54.548 Z M34.992,80.036 C33.84,82.376 32.292,83.744 31.068,83.708 C29.952,83.708 29.016,82.628 28.62,80.252 C28.512,79.82 28.476,79.388 28.476,79.028 C28.476,77.84 28.8,76.472 29.196,75.14 C31.392,69.164 37.836,62.756 42.48,58.508 C40.572,64.952 37.584,74.78 34.992,80.036 Z M74.8626205,43.0368178 C74.8626205,42.8180441 74.8470204,42.5643061 74.988,41.9415103 C75.1289796,41.3187145 75.7694144,38.8049439 74.988,40.148 C73.152,43.172 70.272,48.032 66.6,48.14 C64.26,47.96 63.684,45.944 63.684,43.856 C63.684,43.496 63.684,43.028 63.72,42.668 C63.828,41.732 63.936,40.832 64.116,40.04 C68.976,38.996 75.456,35.324 76.068,29.924 C76.284,26.108 73.764,22.148 69.552,22.148 C62.892,22.148 57.636,31.688 56.952,39.716 C56.88,40.328 56.88,40.94 56.88,41.552 C56.88,46.52 58.716,51.056 63.72,51.056 C70.416,51.056 72.3066205,47.6808178 74.8626205,43.0368178 Z M105.460479,35.9087668 C103.259571,40.2622298 99.9133145,46.4704126 97.128,48.752 C96.156,49.544 94.716,50.156 93.42,50.156 C90,50.156 89.712,44.54 90.072,42.128 C90.072,42.02 90.072,42.092 90.108,41.768 C87.516,46.052 83.808,50.3 79.776,50.3 C75.996,50.3 74.772,47.456 74.772,44.18 C74.772,43.892 74.772,43.46 74.808,43.136 C75.708,35.9 82.62,22.94 90.792,22.94 C95.004,22.94 97.416,27.368 97.128,31.364 C97.056,32.048 96.912,32.696 96.696,33.308 L96.66,33.344 C96.552,33.488 95.94,33.668 95.76,33.668 C95.508,33.668 95.22,33.524 95.004,33.236 C95.184,32.732 95.256,32.264 95.328,31.76 C95.436,29.312 94.464,26.252 91.836,26.252 C86.76,26.252 81.18,39.32 80.82,43.532 C80.712,44.9 80.856,46.772 82.548,46.772 C85.572,46.772 89.388,39.896 91.188,36.368 C91.332,35.828 91.764,35.108 91.692,34.244 C91.62,33.596 92.376,33.416 93.096,33.38 C95.94,33.632 96.876,34.784 97.02,36.296 C97.164,37.844 96.516,39.716 96.264,41.264 C96.084,42.236 95.148,47.888 96.948,46.268 C99.288,43.928 102.276,38.528 104.148,34.964 C104.688,33.812 105.264,32.696 105.66,32.048 C105.728047,32.0207812 105.796094,31.9987073 105.864141,31.9817783 C106.08797,31.5392456 106.308647,31.0942845 106.524,30.644 C102.996,30.464 101.772,27.548 102.024,24.56 C102.312,21.284 104.724,17.648 108.324,17.648 C110.34,17.648 111.276,18.98 111.132,21.356 C110.88,23.768 109.764,26.828 109.26,28.196 C109.188,28.34 109.188,28.412 109.116,28.592 C109.656,28.7 110.412,28.736 111.06,28.736 C111.456,28.736 111.852,28.7 112.284,28.7 C112.68,28.7 113.076,28.664 113.4,28.664 C114.264,28.664 114.984,28.736 115.56,28.952 C116.208,29.24 116.46,29.852 116.46,30.824 C116.46,33.128 114.768,37.16 113.796,39.5 C113.616,39.932 113.328,40.508 113.184,40.94 C111.348,46.16 109.224,52.1 108.288,56.888 C109.404,57.716 110.232,58.4 111.096,59.372 C111.096,56.348 112.716,54.332 114.876,53.54 C115.776,53.216 116.676,53.036 117.504,53.036 C120.96,53.036 123.156,55.808 123.156,58.94 C123.156,62.216 120.06,66.032 114.192,67.364 C113.472,67.472 112.644,67.544 111.924,67.544 C106.884,67.544 102.78,64.268 102.636,57.464 C99.216,56.456 95.292,55.952 91.008,55.952 C87.444,55.952 83.52,56.276 79.416,56.888 C68.004,58.58 56.952,63.224 52.956,71.9 C52.92,72.008 52.812,72.188 52.776,72.332 C52.524,72.98 52.164,74.06 51.3,74.132 C50.364,74.096 49.716,72.836 49.32,71.504 C49.068,70.712 48.96,69.884 48.96,69.056 C48.96,65.096 51.768,61.172 54.972,58.544 C60.516,54.44 69.804,52.244 78.444,51.416 C80.712,51.2 83.124,51.128 85.284,51.128 C91.872,51.128 98.064,52.064 103.14,54.404 C104.688,45.584 107.316,39.068 109.368,33.956 C109.764,32.948 110.088,31.976 110.52,30.968 C110.088,30.968 109.728,30.968 109.404,30.932 C109.044,30.932 108.396,30.896 108.036,30.86 L105.588,35.936 C105.54408,35.9265885 105.501595,35.9175187 105.460479,35.9087668 Z M73.8,27.476 C74.268,28.412 74.448,29.312 74.34,30.212 C73.98,34.532 67.824,37.664 64.584,38.096 C65.376,35 69.696,26.432 72.504,26.432 C72.972,26.432 73.44,26.756 73.8,27.476 Z M111.672,63.296 C111.816,63.692 112.068,63.98 112.536,63.8 C113.004,63.512 113.22,63.332 112.932,62.792 L112.968,62.828 C112.644,62.036 112.5,61.316 112.5,60.596 C112.5,58.256 113.94,56.312 115.596,55.808 C116.028,55.664 116.46,55.628 116.748,55.628 C118.404,55.628 119.16,56.924 119.16,58.544 C119.16,61.208 117.072,64.664 112.968,65.168 C109.728,65.6 108.36,62.36 108.108,59.516 C110.376,60.848 111.348,62.252 111.672,63.26 L111.672,63.296 Z M106.272,26.54 C106.452,24.488 108.432,21.536 109.188,21.536 C109.296,21.536 109.368,21.788 109.332,22.292 C109.152,24.128 107.748,27.44 107.352,28.304 C106.452,28.088 106.164,27.44 106.272,26.54 Z M133.34,28.124 C131.864,32.66 130.46,37.196 130.064,41.876 C130.028,42.452 129.992,43.064 129.992,43.64 C129.992,47.24 131.072,50.12 134.42,50.12 C138.596,50.12 144.241674,37.88 143.881674,37.88 C143.803211,37.88 144.133206,36.6853251 144.419485,35.5073175 C144.705765,34.3293099 144.81453,34.2237083 144.536,34.748 C142.196,39.212 138.02,47.132 136.004,47.132 C135.212,47.096 134.888,45.98 134.888,44.288 C134.888,43.892 134.924,43.28 134.96,42.812 C135.428,38.816 136.976,32.732 137.948,29.636 C138.236,28.664 138.416,27.872 138.416,27.188 C138.416,25.82 137.516,25.028 135.536,24.308 C134.852,24.128 134.204,24.2 134.024,24.812 C133.988,24.956 133.952,25.172 133.952,25.496 C133.952,25.748 133.916,26.108 133.844,26.504 L133.34,28.124 Z M140.36,17.252 C139.784,16.388 139.1,16.028 138.488,16.028 C137.12,16.028 136.112,17.756 135.968,19.304 C135.896,21.284 136.904,22.22 138.056,22.22 C139.388,22.22 140.9,21.284 141.044,19.664 C141.08,18.98 140.9,18.188 140.36,17.252 Z M150.98,31.832 C151.304,30.68 151.592,29.312 151.7,28.016 C151.88,25.64 151.232,23.012 147.596,23.012 C146.912,23.012 146.264,23.228 146.228,23.876 C146.228,24.056 146.264,24.236 146.3,24.488 C146.372,24.956 146.48,25.532 146.444,26.288 C146.3,27.908 145.724,30.284 145.076,32.84 C144.284,35.864 143.348,39.788 143.096,42.92 C143.06,43.424 143.024,43.928 143.024,44.396 C143.024,47.348 143.924,50.408 147.416,50.408 C147.884,50.408 148.208,50.3 148.208,49.904 C148.208,49.76 148.172,49.616 148.1,49.4 C147.956,48.896 147.776,48.068 147.776,46.916 C147.776,46.556 147.776,46.196 147.812,45.8 C147.992,43.568 148.64,40.796 149.432,38.852 L149.972,37.844 C151.952,34.532 157.352,25.208 159.944,25.208 C160.196,25.208 160.304,25.388 160.268,25.856 C160.16,26.828 159.332,28.952 158.36,31.544 C156.92,35.288 155.084,40.328 154.652,44.036 C154.616,44.36 154.616,44.792 154.616,45.08 C154.616,47.924 155.732,50.012 159.044,50.012 C163.508,50.012 168.152,40.544 170.996,34.892 C171.356,34.064 171.824,33.2 172.148,32.624 C171.968,32.228 171.716,31.94 171.248,31.94 C170.744,31.94 170.6,32.264 170.384,32.696 L170.24,32.984 C170.204,33.02 170.132,33.164 170.132,33.2 C169.052,35.288 162.896,47.132 160.808,47.096 C160.016,47.096 159.944,45.296 159.98,44.324 C160.232,42.272 161.276,39.068 162.32,36.008 C163.544,32.66 164.732,29.132 164.948,26.468 C165.164,23.876 164.408,21.968 161.744,21.968 C157.928,21.968 154.94,26.54 152.384,30.572 C151.736,31.508 151.196,32.48 150.62,33.272 C150.692,32.84 150.836,32.372 150.98,31.832 Z M192.228,37.152 L191.112,37.152 C186.432,37.152 184.128,32.688 184.128,27.864 C184.128,26.928 184.2,25.92 184.38,24.984 C185.784,16.704 192.696,10.332 200.004,7.164 C203.604,5.94 207.06,5.292 209.724,5.292 C220.56,5.292 225.024,13.716 225.024,22.356 C225.024,31.392 220.128,40.5 212.388,40.32 C213.54,33.264 214.332,27.576 214.26,22.284 C214.188,19.656 213.36,17.172 209.076,17.388 C208.284,17.424 207.636,17.712 207.636,18.252 L207.852,18.864 C207.996,19.224 208.14,20.052 208.14,20.808 C207.6,28.656 206.268,39.492 204.108,47.88 C202.56,53.82 199.716,59.904 193.812,59.904 C192.732,59.904 191.832,59.796 190.896,59.544 C189.564,59.94 189.6,60.552 190.32,61.308 C192.66,62.28 194.784,62.676 196.656,62.676 C204.72,62.676 208.644,54.9 211.272,45.828 C214.368,56.844 220.2,71.604 235.752,71.604 C237.768,71.604 239.928,71.352 242.268,70.848 C242.628,70.74 243.312,70.02 242.808,69.408 C242.628,69.156 242.376,69.156 242.16,69.228 C241.656,69.372 241.404,69.408 239.748,69.408 C229.056,69.408 223.116,58.14 217.86,47.844 L215.484,43.236 C215.88,43.2 217.032,43.128 216.492,43.128 C226.752,41.22 233.952,29.988 233.952,19.548 C233.952,13.212 231.612,6.984 226.248,3.312 C222.828,1.044 218.58,7.10542736e-15 214.08,7.10542736e-15 C209.256,7.10542736e-15 203.532,1.44 198.78,3.852 C191.652,7.704 183.624,14.508 180.6,23.22 C179.952,25.02 179.628,27 179.628,28.692 C179.628,34.776 182.832,40.536 188.88,40.536 C190.14,40.536 191.4,40.32 192.732,39.816 C194.676,39.096 196.404,37.944 197.736,35.892 C198.456,34.632 198.924,33.552 198.924,32.364 C198.384,31.068 197.88,31.392 197.268,31.86 C197.088,33.084 196.656,34.056 196.116,34.704 C195.072,36.18 193.704,36.936 192.228,37.152 Z M250.32,41.288 C251.832,38.66 251.529227,39.4243008 252.393227,37.6603008 C252.393227,37.6603008 252.480434,36.673954 252.638833,35.6654888 C252.734952,35.0535317 252.819464,34.1269425 252.897866,33.5403667 C252.976267,32.9537909 253.040267,32.9478857 252.984,32.972 C252.624,33.656 252.048,34.664 251.688,35.384 C250.896,36.968 249.888,39.02 248.736,41 C246.9,44.024 244.02,48.884 240.348,48.992 C238.008,48.812 237.432,46.796 237.432,44.708 C237.432,44.348 237.432,43.88 237.468,43.52 C237.576,42.584 237.684,41.684 237.864,40.892 C242.724,39.848 249.204,36.176 249.816,30.776 C250.032,26.96 247.512,23 243.3,23 C236.64,23 231.384,32.54 230.7,40.568 C230.628,41.18 230.628,41.792 230.628,42.404 C230.628,47.372 232.464,51.908 237.468,51.908 C244.164,51.908 247.764,45.932 250.32,41.288 Z M247.844,28.044 C248.312,28.98 248.492,29.88 248.384,30.78 C248.024,35.1 241.868,38.232 238.628,38.664 C239.42,35.568 243.74,27 246.548,27 C247.016,27 247.484,27.324 247.844,28.044 Z M276.458763,35.1026371 C275.270763,37.5506371 273.696,38.6380655 271.284,39.2500655 C270.924,39.3220655 270.564,39.3940655 270.276,39.3940655 C269.484,39.3940655 268.62,39.0340655 267.9,38.4220655 L269.916,34.2460655 C271.968,29.7460655 273.948,24.8140655 273.948,21.5740655 C273.948,19.5220655 273.192,18.1540655 271.14,18.0100655 C266.604,17.6860655 263.58,25.2460655 263.58,31.7260655 C263.58,34.5700655 264.192,37.3060655 265.488,38.9980655 C264.192,41.5540655 263.076,43.5340655 262.14,45.0820655 C261.348,46.4140655 259.98,48.3220655 258.468,48.1780655 C257.244,48.0700655 257.064,46.5220655 257.064,45.1180655 C257.064,44.5420655 257.1,43.9660655 257.1,43.5340655 C257.1,43.4260655 257.136,43.2820655 257.136,43.1740655 C257.316,40.4380655 257.892,36.9100655 258.252,34.8220655 C258.576,33.4180655 258.9,30.9700655 258.828,29.0620655 C258.72,27.2260655 257.964,25.4620655 256.452,24.7060655 C256.02,24.5260655 254.76,24.3820655 253.824,24.5260655 C253.176,24.6340655 252.6,24.8860655 252.672,25.5340655 C252.672,25.7500655 252.744,25.8580655 252.816,26.0380655 C252.96,26.3980655 253.176,26.9020655 253.212,27.5500655 C253.248,28.2700655 253.032,29.8540655 252.708,31.9060655 C252.24,35.0740655 251.628,39.4300655 251.628,43.2100655 C251.628,47.8180655 252.564,51.5980655 255.84,51.6700655 C259.656,51.8140655 262.14,48.5740655 263.832,45.7300655 C264.696,44.2540655 265.812,42.3100655 266.856,40.2220655 C268.116,40.9420655 269.592,41.1940655 270.852,41.0140655 C271.807597,40.8547993 273.051505,40.8908737 274.126119,40.2220655 C275.200732,39.5532572 275.425213,39.4721291 275.522917,38.9980655 C275.869793,37.3150087 276.458763,35.1026371 276.458763,35.1026371 Z M271.596,19.042079 C272.424,19.222079 272.748,19.942079 272.748,21.094079 C272.748,24.010079 270.228,29.806079 268.464,33.370079 L266.988,36.142079 C266.736,35.566079 266.628,34.594079 266.628,33.298079 C266.628,27.898079 268.716,18.286079 271.596,19.042079 Z M278.976,28.9022024 C277.5,33.4382024 276.096,37.9742024 275.7,42.6542024 C275.664,43.2302024 275.628,43.8422024 275.628,44.4182024 C275.628,48.0182024 276.708,50.8982024 280.056,50.8982024 C284.232,50.8982024 286.413712,46.4966401 289.221712,40.6646401 C289.221712,40.6646401 289.393393,38.8979432 289.71651,37.3858244 C290.039627,35.8737056 290.451142,35.000759 290.172,35.5262024 C287.832,39.9902024 283.656,47.9102024 281.64,47.9102024 C280.848,47.8742024 280.524,46.7582024 280.524,45.0662024 C280.524,44.6702024 280.56,44.0582024 280.596,43.5902024 C281.064,39.5942024 282.612,33.5102024 283.584,30.4142024 C283.872,29.4422024 284.052,28.6502024 284.052,27.9662024 C284.052,26.5982024 283.152,25.8062024 281.172,25.0862024 C280.488,24.9062024 279.84,24.9782024 279.66,25.5902024 C279.624,25.7342024 279.588,25.9502024 279.588,26.2742024 C279.588,26.5262024 279.552,26.8862024 279.48,27.2822024 L278.976,28.9022024 Z M286.023635,18.224 C285.447635,17.36 284.763635,17 284.151635,17 C282.783635,17 281.775635,18.728 281.631635,20.276 C281.559635,22.256 282.567635,23.192 283.719635,23.192 C285.051635,23.192 286.563635,22.256 286.707635,20.636 C286.743635,19.952 286.563635,19.16 286.023635,18.224 Z M308.32,41.288 C308.564087,40.8637541 308.882714,40.5091689 309.114659,39.9579692 C309.247333,39.6426795 309.723217,37.4657389 310.225743,35.5973735 C310.728269,33.7290081 311.012292,32.9369691 310.921849,32.9757305 C310.561849,33.6597305 310.048,34.664 309.688,35.384 C308.896,36.968 307.888,39.02 306.736,41 C304.9,44.024 302.02,48.884 298.348,48.992 C296.008,48.812 295.432,46.796 295.432,44.708 C295.432,44.348 295.432,43.88 295.468,43.52 C295.576,42.584 295.684,41.684 295.864,40.892 C300.724,39.848 307.204,36.176 307.816,30.776 C308.032,26.96 305.512,23 301.3,23 C294.64,23 289.384,32.54 288.7,40.568 C288.628,41.18 288.628,41.792 288.628,42.404 C288.628,47.372 290.464,51.908 295.468,51.908 C302.164,51.908 305.764,45.932 308.32,41.288 Z M305.844,28.044 C306.312,28.98 306.492,29.88 306.384,30.78 C306.024,35.1 299.868,38.232 296.628,38.664 C297.42,35.568 301.74,27 304.548,27 C305.016,27 305.484,27.324 305.844,28.044 Z M341.352,39.2501117 C340.992,39.3221117 340.632,39.3941117 340.344,39.3941117 C339.552,39.3941117 338.688,39.0341117 337.968,38.4221117 L338.976,36.3701117 L339.984,34.2461117 L340.272,33.6701117 L340.632,32.9501117 C342.288,29.2781117 344.052,24.7421117 344.052,21.6461117 C344.052,19.5941117 343.26,18.1541117 341.208,18.0101117 C336.636,17.6861117 333.648,25.2101117 333.648,31.6901117 C333.648,34.5701117 334.224,37.2701117 335.556,38.9621117 L334.872,40.3301117 C333.468,43.2101117 331.452,47.1701117 328.932,47.7101117 C327.996,47.9261117 327.24,47.2061117 327.384,45.1181117 C327.492,42.1301117 328.608,37.3781117 329.436,33.7061117 C329.94,31.5821117 330.336,29.8181117 330.408,28.9901117 C330.588,26.7221117 330.048,24.8501117 327.672,24.8501117 C326.052,24.8501117 325.44,25.1741117 325.368,26.1101117 C325.368,26.1101117 325.404,26.3981117 325.44,26.6501117 C325.512,27.0101117 325.584,27.4781117 325.548,27.8381117 C325.332,30.7541117 324.612,32.7341117 323.64,35.6501117 C321.624,39.0701117 316.26,48.1421117 314.352,48.1421117 C313.92,48.1421117 313.848,47.2421117 313.884,46.1981117 C314.208,43.3181117 315.792,37.9181117 316.656,35.1821117 C317.16,33.7061117 317.916,31.5101117 318.096,29.4221117 C318.24,27.5501117 317.772,25.7141117 316.404,24.7781117 C316.008,24.5261117 314.82,24.1661117 313.92,24.1661117 C313.2,24.1661117 312.66,24.3821117 312.588,24.9941117 C312.588,25.2101117 312.588,25.3901117 312.66,25.5701117 C312.732,25.8941117 312.876,26.3981117 312.804,27.1541117 C312.66,28.7381117 311.94,31.3661117 311.112,34.3541117 C310.104,38.0621117 308.952,42.1661117 308.7,45.4781117 C308.664,45.9821117 308.628,46.4861117 308.628,46.9541117 C308.628,49.6541117 309.456,51.4901117 311.94,51.4901117 C315.864,51.4901117 318.6,47.2421117 321.156,43.3541117 L321.588,42.6701117 C321.624,43.2461117 321.588,43.2461117 321.588,43.8581117 C321.552,47.5301117 321.552,51.7781117 326.196,51.7781117 C331.092,51.7781117 333.54,46.8461117 335.556,42.8141117 C335.988,41.8781117 336.348,41.1221117 336.888,40.2221117 C338.148,40.9421117 339.66,41.1941117 340.92,41.0141117 C344.376,40.4381117 347.328,37.4861117 348.732,34.1741117 C348.156,33.5981117 347.796,33.4901117 347.22,33.8861117 C345.996,36.4061117 343.764,38.6381117 341.352,39.2501117 Z M340.596,19.042079 C341.424,19.222079 341.748,19.942079 341.748,21.094079 C341.748,24.010079 339.228,29.806079 337.464,33.370079 C337.068,34.126079 336.6,34.918079 336.204,35.674079 L335.988,36.106079 C335.772,35.530079 335.628,34.522079 335.628,33.298079 C335.628,27.898079 337.716,18.286079 340.596,19.042079 Z" id="Year-in-Review"></path>
            </g>
        </g>
    </g>
</svg>