<?xml version="1.0" encoding="UTF-8" standalone="no"?>
<svg width="632px" height="207px" viewBox="0 0 632 207" version="1.1" xmlns="http://www.w3.org/2000/svg" xmlns:xlink="http://www.w3.org/1999/xlink">
    <!-- Generator: sketchtool 41.2 (35397) - http://www.bohemiancoding.com/sketch -->
    <title>Thank you!</title>
    <desc>Created with sketchtool.</desc>
    <defs></defs>
    <g id="Page-1" stroke="none" stroke-width="1" fill="none" fill-rule="evenodd">
        <g id="6" transform="translate(-404.000000, -301.000000)" fill="#E2231A">
            <g id="Group-3" transform="translate(28.000000, 24.000000)">
                <g id="Group-2" transform="translate(374.000000, 277.000000)">
                    <path d="M319.653848,92.315327 C313.76806,103.271722 302.733455,122.708144 298.380053,122.633085 C296.28378,122.633085 296.093209,117.868828 296.188495,115.296129 C296.855491,109.864875 299.61876,101.384497 302.382029,93.2852592 C305.621724,84.4237404 308.766134,75.0857958 309.337845,68.0346948 C309.909556,61.1741641 307.908568,56.1240513 300.857467,56.1240513 C290.757241,56.1240513 282.848574,68.2252651 276.083328,78.8972018 C274.368196,81.3746156 272.938918,83.9473146 271.414356,86.0435879 C271.604926,84.9001661 271.986067,83.6614592 272.367207,82.232182 C273.224774,79.1830572 273.987055,75.5622216 274.27291,72.1319562 C274.749336,65.8431364 273.034203,58.8873206 263.410403,58.8873206 C261.599986,58.8873206 259.884853,59.4590315 259.789568,61.1741641 C259.789568,61.6505899 259.884853,62.1270156 259.980138,62.7940117 C260.170708,64.0327186 260.456564,65.557281 260.361279,67.5582691 C259.980138,71.8461008 258.455576,78.1349206 256.740443,84.9001661 C256.000269,87.7262856 255.212577,90.8493919 254.473841,94.0723421 C249.547448,103.240566 242.759158,114.984641 237.302273,120.441527 C232.538015,124.729358 235.015429,109.76959 235.491855,107.196891 C236.158851,103.099629 237.873983,98.1448018 237.492843,94.0475404 C237.111702,90.0455641 234.634288,86.9964394 227.106762,86.3294433 C225.201059,86.4247285 223.200071,86.9011542 223.390641,88.6162869 C223.581211,90.9031305 222.437789,92.8088335 222.056649,94.2381107 C217.292391,103.576055 207.192166,121.775519 199.188213,121.775519 C194.709811,121.775519 194.328671,116.820691 194.614526,113.199855 C195.567378,102.051493 210.336576,67.4629839 223.771782,67.4629839 C230.727597,67.4629839 233.300296,75.5622216 233.014441,82.0416117 C232.823871,83.3756037 232.6333,84.6143107 232.156875,85.9483028 C232.728585,86.7105839 233.490867,87.0917245 234.157863,87.0917245 C234.634288,87.0917245 236.254136,86.6152988 236.539991,86.2341582 L236.635277,86.1388731 C237.206987,84.5190255 237.588128,82.8038929 237.778698,80.993475 C238.54098,70.4168235 232.156875,58.6967503 221.008512,58.6967503 C201.721275,58.6967503 185.085779,85.971804 180.019789,105.458883 C174.777284,114.276244 169.042952,122.633085 166.124267,122.633085 C164.027993,122.633085 163.837423,117.868828 163.932708,115.296129 C164.504419,109.674305 167.267688,101.289212 170.221528,92.9994037 C173.175368,84.3284552 176.319777,74.9905107 176.986773,68.0346948 C177.653769,61.2694493 175.557496,56.1240513 168.60168,56.1240513 C158.501455,56.1240513 150.592787,68.2252651 143.827542,78.8972018 C142.112409,81.3746156 140.778417,83.8520295 139.158569,86.0435879 L142.49355,71.1791047 C145.63796,57.5533285 149.544651,40.592572 149.925791,36.7811661 C150.402217,30.3970611 148.591799,23.5365304 138.967999,23.5365304 C138.778568,23.5365304 138.591224,23.5417465 138.407494,23.5530517 C139.330087,23.235445 140.27713,22.9126289 141.254843,22.583679 C166.410122,14.1985859 203.285474,-1.14232303 205.381748,23.917671 C205.762888,32.3027641 201.189201,45.070974 190.898405,47.1672473 C181.846316,48.4059542 174.985785,35.6377443 174.318789,30.4923463 C173.461223,29.8253503 171.74609,29.2536394 170.507383,31.9216235 C171.93666,41.831279 180.798179,52.4079305 193.375819,52.4079305 C195.948518,52.4079305 198.616502,52.0267899 200.998631,51.1692235 C213.671556,46.5955364 220.341516,31.9216235 217.673532,19.8204097 C212.337563,6.00406311 201.093916,-0.0941863975 187.753995,0.00109875108 C136.967011,0.286954197 78.0807891,40.6878572 29.3900782,44.4992631 C26.7220941,44.7851186 19.8615634,45.4521146 17.670005,43.0699859 C16.9077238,42.2124196 17.0982941,41.2595681 15.3831614,41.6407087 C13.6680287,42.1171344 13.858599,44.1181225 14.6208802,45.4521146 C17.8605753,50.5022275 31.4863515,51.3597938 37.4893159,51.5503641 C56.2604901,51.8362196 75.8892307,43.7369819 95.4226862,37.1623067 L95.5179713,38.3057285 C95.4226862,40.6878572 94.9462604,44.9756889 93.7075535,51.0739384 C90.3725733,68.9875463 87.5140189,87.1870097 82.463906,106.148754 C75.7939456,130.446467 61.4058881,173.420069 30.6287852,171.514366 C17.4794347,169.703948 10.2377634,149.694067 15.5737317,131.685174 C20.6238446,115.200843 35.5836129,100.812786 44.2545614,102.813774 C53.6877911,104.528907 55.4982089,121.203808 54.5453574,130.541752 C54.4500723,132.35217 53.4019357,135.020154 56.165205,135.30601 C59.2143297,135.30601 59.3096149,129.970041 59.5001852,127.683198 C61.1200327,110.817727 53.6877911,92.1418374 35.011902,93.4758295 C17.8605753,95.4768176 5.47350594,111.294152 2.71023663,129.20776 C-0.910599014,151.123344 9.47548218,171.03794 30.1523594,176.659764 C40.6337258,179.327748 51.8773733,178.184327 61.0247476,173.229499 C82.6544763,161.509426 92.6594169,137.211713 99.138807,112.437574 C102.950213,97.9542315 105.427627,83.6614592 108.476752,70.6073938 C110.954165,59.173176 112.859868,48.5965245 113.62215,31.9216235 C122.285897,29.3459149 128.456169,27.0259473 136.008484,24.3856303 C135.680369,24.7115858 135.474603,25.1493077 135.442449,25.7280889 C135.442449,26.2045146 135.537734,26.7762255 135.633019,27.4432215 C135.823589,28.6819285 136.109445,30.1112057 136.01416,32.207479 C135.633019,36.6858809 132.488609,49.9305166 129.058344,64.5091443 C124.770512,82.6133226 120.006255,102.718489 119.243973,111.580008 C119.148688,112.914 119.053403,114.247992 119.053403,115.486699 C119.053403,123.300081 121.435532,131.399319 130.582906,131.399319 C131.916898,131.399319 132.774465,131.113463 132.774465,130.065327 C132.774465,129.684186 132.679179,129.20776 132.488609,128.636049 C132.107468,126.920917 131.440472,123.681222 131.726328,119.20282 C132.298039,113.29514 133.917886,105.862899 136.01416,100.812786 L135.918874,100.812786 L137.443437,98.1448018 L137.443437,98.2400869 C142.68412,89.3785681 156.976892,64.6997146 163.837423,64.6997146 C164.504419,64.6997146 164.790274,65.1761404 164.694989,66.4148473 C164.409134,68.9875463 162.217575,74.6093701 159.644876,81.4699008 C155.928756,91.3795562 151.069213,104.719477 149.830506,114.533847 C149.735221,115.391414 149.735221,116.534835 149.735221,117.392402 C149.735221,124.919929 152.593775,130.351182 161.360009,130.351182 C167.12156,130.351182 173.117174,124.171903 178.627601,116.105644 C178.919527,124.263631 182.307303,131.113463 191.851257,131.113463 C202.523193,131.113463 212.337564,119.869816 219.198094,108.530883 C219.102809,109.388449 219.102809,109.197879 219.102809,109.483734 C218.149958,115.867839 218.912239,130.732323 227.964328,130.732323 C231.394593,130.732323 235.205999,129.112475 237.778698,127.016202 C242.274791,123.333232 247.32311,115.784676 251.899206,107.841609 C251.732222,109.122933 251.596822,110.373666 251.49976,111.580008 C251.404475,112.914 251.30919,114.247992 251.30919,115.486699 C251.30919,123.300081 253.691318,131.399319 262.933978,131.399319 C264.172685,131.399319 265.030251,131.113463 265.030251,130.065327 C265.030251,129.684186 264.934966,129.303045 264.744395,128.731334 C264.363255,127.397342 263.886829,125.205784 263.886829,122.156659 C263.886829,121.203808 263.886829,120.250956 263.982114,119.20282 C264.45854,113.29514 266.173673,105.958184 268.269946,100.812786 L268.174661,100.812786 L269.699223,98.1448018 L269.699223,98.2400869 C274.939906,89.3785681 289.232679,64.6997146 296.093209,64.6997146 C296.760205,64.6997146 297.046061,65.1761404 296.950776,66.4148473 C296.66492,68.9875463 294.473362,74.6093701 291.900663,81.4699008 C288.089257,91.3795562 283.229714,104.719477 282.086293,114.533847 C281.991007,115.391414 281.991007,116.534835 281.991007,117.297117 C281.991007,124.824643 284.944847,130.351182 293.711081,130.351182 C301.787691,130.351182 310.086919,118.641491 316.934845,106.452589 C316.623663,108.458094 316.403304,110.218606 316.293661,111.675293 C316.198376,113.009285 316.103091,114.343277 316.103091,115.677269 C316.103091,123.967077 318.580505,132.638026 327.727879,132.638026 C329.157156,132.638026 329.919437,132.1616 329.919437,131.304033 C329.919437,131.018178 329.824152,130.446467 329.633582,129.874756 L329.633582,129.970041 C329.252441,128.731334 328.68073,126.444491 328.68073,123.395366 C328.68073,122.442515 328.776015,121.489663 328.871301,120.346241 C329.157156,117.201831 329.443011,114.819703 330.110008,111.294152 C333.635558,119.965101 344.021639,133.590877 354.40772,131.589889 C360.124829,130.160612 365.460798,119.20282 372.416613,104.624192 C375.084598,98.907083 378.229008,91.9512671 381.849843,84.6143107 C381.087562,82.6133226 379.563,82.7086077 378.229008,83.1850334 C374.417602,90.4267047 371.082621,97.3825206 368.414637,103.099629 C362.125817,116.05841 357.266275,126.06335 353.83601,125.68221 C347.642475,125.205784 340.210233,107.863887 338.971526,104.338336 C352.502017,101.956208 365.841938,86.7105839 367.366501,73.1800928 C367.747641,66.0337067 363.745665,61.5553047 357.456845,61.5553047 C354.788861,61.5553047 351.549166,62.2223008 348.309471,63.7468631 C345.450916,65.0808552 342.687647,66.9865582 340.210233,69.3686869 C343.354643,57.267473 346.022627,45.6426849 346.880194,36.8764512 C347.451905,30.301776 345.832057,23.6318156 336.017687,23.6318156 C334.111984,23.6318156 332.587421,24.0129562 332.396851,25.7280889 C332.396851,26.3950849 332.492136,26.8715106 332.587421,27.5385067 C332.777992,28.6819285 333.063847,30.2064908 332.968562,32.3027641 C332.587421,36.7811661 329.538297,50.0258017 326.108031,64.6044295 C323.854506,73.9124668 321.500232,83.7494402 319.653848,92.315327 Z M610.484767,92.7841034 C604.582219,103.72641 593.770991,122.633085 589.380897,122.633085 C587.284624,122.633085 586.998768,117.678257 587.284624,115.200843 C587.570479,110.627156 589.762038,103.67134 592.048881,96.1438137 C594.526295,87.7587206 597.194279,78.5160612 597.861275,71.5602453 C598.432986,65.8431364 596.813139,60.6977384 590.810174,60.6977384 C586.522343,60.6977384 584.902495,61.5553047 584.711925,64.0327186 C584.711925,64.0327186 584.80721,64.7949998 584.902495,65.4619958 C585.093065,66.4148473 585.283636,67.6535542 585.188351,68.6064057 C584.61664,76.3245028 582.615652,81.5651859 580.138238,89.283283 L580.233523,89.1879978 C574.706984,98.3353721 560.604782,122.34723 555.459384,122.34723 C554.315963,122.34723 554.125392,119.965101 554.220677,117.201831 C555.078244,109.57902 559.27079,95.2862473 561.652919,88.044576 C562.986911,84.2331701 564.892614,78.2302057 565.36904,72.7036671 C565.75018,67.7488394 564.702044,62.7940117 560.985923,60.5071681 C559.842501,59.840172 556.793376,58.8873206 554.315963,58.8873206 C552.60083,58.8873206 550.885697,59.4590315 550.790412,61.1741641 C550.790412,61.6505899 550.790412,62.0317305 550.980982,62.6034414 L550.980982,62.5081562 C551.266838,63.4610077 551.647978,64.7949998 551.457408,66.7959879 C551.076267,70.9885344 549.075279,78.3254909 546.979006,85.9483028 C546.629584,87.2295186 546.269615,88.5494042 545.9065,89.8948293 C541.39914,98.4435713 536.258956,106.619263 527.350265,108.435598 C532.209808,99.2882236 535.544788,88.3304315 536.49764,78.5160612 L536.49764,78.6113463 C536.68821,76.8962136 536.783495,75.0857958 536.783495,73.1800928 C536.783495,59.173176 531.638097,48.2153839 519.251028,48.2153839 C504.100689,48.2153839 499.812857,62.7940117 498.478865,76.2292176 C496.763733,75.3716513 494.476889,74.7999404 492.475901,74.7999404 C488.95035,74.7999404 485.329515,76.1339325 482.852101,79.1830572 C481.429012,82.883089 480.572694,88.2834342 480.095041,94.2554583 C475.543853,102.526436 470.267525,110.807899 465.319634,114.819703 C469.035754,95.7626731 470.655602,83.1850334 471.703738,70.2262532 C471.036742,64.9855701 467.892333,60.8883087 459.507239,60.8883087 C457.506251,60.9835938 455.981689,61.4600196 455.791119,63.1751522 C455.791119,63.5562928 455.791119,64.1280037 455.981689,64.8902849 C456.172259,66.224277 456.5534,67.8441245 456.36283,70.0356829 C456.267544,72.2272414 455.219408,79.2783424 453.313705,88.9974275 L453.40899,88.9021424 C453.027849,89.6644235 452.456138,90.4267047 451.979713,91.1889859 L451.979713,91.0937008 C445.786178,101.765637 433.589679,122.34723 428.920707,122.34723 C427.777285,122.34723 427.586715,119.965101 427.682,117.201831 C428.539566,109.674305 432.827398,95.3815325 435.209527,88.044576 L435.781237,86.2341582 C437.019944,82.5180374 438.544507,77.6584948 438.925647,72.7036671 C439.306788,67.8441245 438.068081,62.984582 434.447245,60.5071681 C433.303824,59.840172 430.254699,58.8873206 427.777285,58.8873206 C426.062152,58.8873206 424.442305,59.4590315 424.34702,61.1741641 C424.34702,61.745875 424.442305,62.0317305 424.53759,62.5081562 C424.72816,63.4610077 425.109301,64.7949998 424.918731,66.7959879 C424.53759,70.9885344 422.536602,78.3254909 420.440329,85.9483028 C417.86763,95.3815325 414.627935,106.911035 413.865653,115.296129 C413.770368,116.630121 413.675083,117.964113 413.675083,119.20282 C413.675083,126.349206 416.057212,131.208748 422.631887,131.208748 C432.350972,131.208748 441.212491,118.631109 449.311729,105.767614 L450.550436,103.957196 C448.549447,113.962136 446.9296,121.584948 445.595608,128.254909 C428.253711,143.309962 412.150521,159.317867 405.861701,182.662729 C405.28999,184.949572 405.004134,187.141131 405.004134,189.332689 C405.004134,198.289493 409.673107,205.054738 416.724208,205.912305 C441.403061,208.866144 455.219408,164.272695 463.795071,122.5378 C468.888681,119.23535 474.70567,111.362458 479.971225,102.685617 C480.601438,115.69566 485.428403,130.446467 498.860006,130.446467 C509.055517,130.446467 517.821751,123.585936 524.301141,113.771566 C531.848559,113.333329 537.977628,108.440978 542.739213,102.400668 C541.685307,107.02081 540.846218,111.483511 540.499616,115.296129 C540.404331,116.630121 540.309046,117.964113 540.309046,119.20282 C540.309046,126.349206 542.595889,131.208748 549.170564,131.208748 C559.461361,131.208748 566.798317,119.965101 573.468277,109.674305 C573.658848,109.483734 573.754133,109.102594 573.944703,108.912024 C573.468277,111.008297 573.087137,113.199855 572.991852,115.105558 L572.991852,117.868828 C572.991852,125.205784 575.850406,130.351182 584.711925,130.351182 C594.125013,130.351182 603.840491,114.445531 611.160189,100.413228 C611.259107,100.61962 611.367861,100.816624 611.487052,101.003356 C612.535188,103.48077 615.393743,104.338336 619.109864,105.195903 C620.062715,105.481758 621.110852,105.005332 621.110852,104.052481 C621.015567,103.67134 620.158,101.956208 620.443856,99.9552196 C620.443856,95.6673879 621.491992,91.2842711 622.730699,87.4728651 C623.49298,84.2331701 625.589254,73.6565186 632.54507,45.070974 C633.307351,41.4501384 635.498909,31.6357681 632.354499,27.6337918 C631.211078,25.5375186 628.733664,25.4422334 624.826973,24.6799522 C623.778836,24.3940968 622.730699,24.7752374 622.92127,25.6328037 C622.825984,26.0139443 623.778836,27.4432215 623.49298,29.2536394 C623.683551,32.9697602 622.730699,36.8764512 621.682563,40.2114314 C621.110852,43.0699859 619.109864,52.5985008 612.630474,82.0416117 C612.146935,84.351852 610.936348,88.6614759 610.484767,92.7841034 Z M346.117912,70.5121087 C348.309471,69.2734018 349.929318,68.6064057 350.977455,68.6064057 C352.406732,68.6064057 353.073728,69.7498275 353.073728,71.5602453 C353.073728,78.9924869 342.497077,96.8108097 332.587421,98.6212275 C334.016699,92.1418374 335.827116,85.7577325 337.542249,79.0877721 C339.924378,75.6575067 343.164073,72.2272414 346.117912,70.5121087 Z M517.726465,113.390426 C514.200915,117.392402 510.580079,119.488675 506.292248,119.488675 C499.622287,119.488675 497.430729,110.722441 497.430729,101.289212 C497.430729,99.3835087 497.526014,97.3825206 497.716584,95.3815325 C497.907154,93.2852592 498.097725,90.9984156 498.478865,88.9974275 C499.812857,100.622216 505.053541,109.57902 517.726465,113.390426 Z M616.060739,116.820691 C614.726747,114.533847 613.202184,113.676281 611.677622,113.676281 C608.342642,113.676281 605.484087,118.059398 604.721806,122.061374 C603.768955,127.492628 606.151083,129.398331 609.104923,129.398331 C612.439903,129.398331 616.441879,127.111487 617.204161,123.014226 C617.585301,121.299093 617.299446,119.20282 616.060739,116.820691 Z M509.055517,81.5651859 C509.055517,78.5160612 509.246087,75.6575067 509.436657,73.3706631 C510.389509,63.1751522 513.057493,54.027778 518.965172,54.027778 C527.445551,54.027778 531.161671,62.8892968 531.161671,73.8470889 C531.161671,75.4669364 531.161671,77.0867839 530.971101,78.8019166 C530.113535,88.8068572 526.587984,100.050505 521.633156,108.054457 C511.056505,106.053469 509.055517,92.3324077 509.055517,81.5651859 Z M410.244818,189.046834 C410.244818,181.042881 417.105348,167.131249 419.868618,162.557562 C426.443293,152.552622 434.923671,143.405247 443.78519,136.449431 L442.832338,140.165552 L442.832338,140.070267 C442.165342,141.97597 441.688917,144.262814 440.926636,146.549657 C436.734089,160.080148 430.731125,179.041893 423.298883,188.856263 C420.821469,192.191243 417.962915,194.478087 415.009075,194.859228 C411.57881,194.859228 410.244818,192.381814 410.244818,189.046834 Z" id="Thank-you!"></path>
                </g>
            </g>
        </g>
    </g>
</svg>