<?xml version="1.0" encoding="UTF-8" standalone="no"?>
<svg width="63px" height="63px" viewBox="0 0 63 63" version="1.1" xmlns="http://www.w3.org/2000/svg" xmlns:xlink="http://www.w3.org/1999/xlink">
    <!-- Generator: sketchtool 41.2 (35397) - http://www.bohemiancoding.com/sketch -->
    <title>twitter</title>
    <desc>Created with sketchtool.</desc>
    <defs></defs>
    <g id="Page-1" stroke="none" stroke-width="1" fill="none" fill-rule="evenodd">
        <g id="1" transform="translate(-1340.000000, -29.000000)">
            <g id="twitter" transform="translate(1341.000000, 30.000000)">
                <ellipse id="Oval-5-Copy-2" stroke="#FFFFFF" stroke-width="2" cx="30.5" cy="30.5" rx="30.5" ry="30.5"></ellipse>
                <path d="M41.6964544,23.8928391 C40.9196678,24.227661 40.0759168,24.4687327 39.20538,24.5624828 C40.1027025,24.0267679 40.7857391,23.1830169 41.107168,22.1785514 C40.2768099,22.6740877 39.3393088,23.0356953 38.361629,23.2231955 C37.5714495,22.3794445 36.4464482,21.8571224 35.200911,21.8571224 C32.8035867,21.8571224 30.875013,23.799089 30.875013,26.1830204 C30.875013,26.5178423 30.9151916,26.8526641 30.9821559,27.174093 C27.392866,26.9865928 24.1919693,25.2723051 22.0625025,22.6473019 C21.687502,23.2901598 21.473216,24.0267679 21.473216,24.8303403 C21.473216,26.330342 22.2366098,27.6562365 23.4017898,28.4330231 C22.6919675,28.4062374 22.0223238,28.2053443 21.4464303,27.8839153 L21.4464303,27.9374868 C21.4464303,30.0401679 22.9330392,31.7812414 24.9151844,32.1830276 C24.5535769,32.2767777 24.1651835,32.3303492 23.7767902,32.3303492 C23.4955399,32.3303492 23.2276824,32.3035634 22.959825,32.2633848 C23.5089328,33.9776726 25.1026847,35.2232098 27.0044726,35.2633884 C25.5178637,36.4285684 23.6562544,37.1116049 21.6339305,37.1116049 C21.2723229,37.1116049 20.9375011,37.098212 20.5892864,37.0580334 C22.5044673,38.2901777 24.7812557,39 27.2321515,39 C35.1875181,39 39.5402019,32.4107064 39.5402019,26.6919496 C39.5402019,26.5044494 39.5402019,26.3169492 39.526809,26.1294489 C40.37056,25.5133768 41.107168,24.749983 41.6964544,23.8928391 Z" id="" fill="#FFFFFF"></path>
            </g>
        </g>
    </g>
</svg>